name Walk5.mot
datacolumns 19
datarows 15
range 2.35200000 2.36600000
endheader

                time	   L_ground_force_vx	   L_ground_force_vy	   L_ground_force_vz	   L_ground_force_px	   L_ground_force_py	   L_ground_force_pz	   R_ground_force_vx	   R_ground_force_vy	   R_ground_force_vz	   R_ground_force_px	   R_ground_force_py	   R_ground_force_pz	   L_ground_torque_x	   L_ground_torque_y	   L_ground_torque_z	   R_ground_torque_x	   R_ground_torque_y	   R_ground_torque_z	
          2.35200000	          0.00000006	          0.00000041	         -0.00000000	         -0.00000000	          0.00000000	         -0.00000000	         40.80268750	        181.93161655	          9.16052041	          0.25070033	          0.00000000	          0.06101049	          0.00000000	          0.00000000	          0.00000000	          0.00000000	         -9.30268829	          0.00000000	
          2.35300000	          0.00000006	          0.00000038	         -0.00000000	         -0.00000000	          0.00000000	         -0.00000000	         39.03880044	        173.49015644	          9.13494255	          0.24919657	          0.00000000	          0.06051865	          0.00000000	          0.00000000	          0.00000000	          0.00000000	         -8.96506336	          0.00000000	
          2.35400000	          0.00000005	          0.00000035	         -0.00000000	         -0.00000000	          0.00000000	         -0.00000000	         37.29242031	        165.22186123	          9.08644096	          0.24754593	          0.00000000	          0.05999619	          0.00000000	          0.00000000	          0.00000000	          0.00000000	         -8.62808537	          0.00000000	
          2.35500000	          0.00000004	          0.00000032	         -0.00000000	         -0.00000000	          0.00000000	         -0.00000000	         35.56629358	        157.13245596	          9.01595280	          0.24574305	          0.00000000	          0.05944204	          0.00000000	          0.00000000	          0.00000000	          0.00000000	         -8.29232457	          0.00000000	
          2.35600000	          0.00000003	          0.00000029	         -0.00000000	         -0.00000000	          0.00000000	         -0.00000000	         33.86305656	        149.22732697	          8.92448344	          0.24378277	          0.00000000	          0.05885512	          0.00000000	          0.00000000	          0.00000000	          0.00000000	         -7.95833752	          0.00000000	
          2.35700000	          0.00000002	          0.00000026	         -0.00000000	         -0.00000000	          0.00000000	         -0.00000000	         32.18522811	        141.51149761	          8.81310086	          0.24166012	          0.00000000	          0.05823442	          0.00000000	          0.00000000	          0.00000000	          0.00000000	         -7.62666643	          0.00000000	
          2.35800000	          0.00000002	          0.00000024	         -0.00000000	         -0.00000000	          0.00000000	         -0.00000000	         30.53520491	        133.98960300	          8.68292952	          0.23937037	          0.00000000	          0.05757897	          0.00000000	          0.00000000	          0.00000000	          0.00000000	         -7.29783860	          0.00000000	
          2.35900000	          0.00000001	          0.00000022	         -0.00000000	         -0.00000000	          0.00000000	         -0.00000000	         28.91525818	        126.66586425	          8.53514379	          0.23690907	          0.00000000	          0.05688784	          0.00000000	          0.00000000	          0.00000000	          0.00000000	         -6.97236591	          0.00000000	
          2.36000000	          0.00000001	          0.00000019	         -0.00000000	         -0.00000000	          0.00000000	         -0.00000000	         27.32753141	        119.54406285	          8.37096114	          0.23427211	          0.00000000	          0.05616022	          0.00000000	          0.00000000	          0.00000000	          0.00000000	         -6.65074410	          0.00000000	
          2.36100000	          0.00000000	          0.00000017	         -0.00000000	         -0.00000000	          0.00000000	         -0.00000000	         25.77403845	        112.62751630	          8.19163543	          0.23145577	          0.00000000	          0.05539534	          0.00000000	          0.00000000	          0.00000000	          0.00000000	         -6.33345224	          0.00000000	
          2.36200000	         -0.00000000	          0.00000015	          0.00000000	         -0.00000000	          0.00000000	         -0.00000000	         24.25666189	        105.91905630	          7.99845046	          0.22845677	          0.00000000	          0.05459255	          0.00000000	          0.00000000	          0.00000000	          0.00000000	         -6.02095216	          0.00000000	
          2.36300000	         -0.00000001	          0.00000013	          0.00000000	         -0.00000000	          0.00000000	         -0.00000000	         22.77715154	         99.42101065	          7.79271366	          0.22527236	          0.00000000	          0.05375130	          0.00000000	          0.00000000	          0.00000000	          0.00000000	         -5.71368799	          0.00000000	
          2.36400000	         -0.00000001	          0.00000011	          0.00000000	         -0.00000000	          0.00000000	         -0.00000000	         21.33712309	         93.13519001	          7.57574997	          0.22190037	          0.00000000	          0.05287116	          0.00000000	          0.00000000	          0.00000000	          0.00000000	         -5.41208541	          0.00000000	
          2.36500000	         -0.00000001	          0.00000010	          0.00000000	         -0.00000000	          0.00000000	         -0.00000000	         19.93805680	         87.06288003	          7.34889524	          0.21833929	          0.00000000	          0.05195185	          0.00000000	          0.00000000	          0.00000000	          0.00000000	         -5.11655057	          0.00000000	
          2.36600000	         -0.00000002	          0.00000008	          0.00000000	         -0.00000000	          0.00000000	         -0.00000000	         18.58129556	         81.20483981	          7.11348917	          0.21458832	          0.00000000	          0.05099324	          0.00000000	          0.00000000	          0.00000000	          0.00000000	         -4.82746870	          0.00000000	
